<svg width="19" height="22" viewBox="0 0 19 22" fill="none" xmlns="http://www.w3.org/2000/svg">
<path d="M3.69336 21.3105C2.63867 21.3105 1.84115 21.0436 1.30078 20.5098C0.760417 19.9759 0.490234 19.1849 0.490234 18.1367V8.52734C0.490234 7.48568 0.760417 6.69792 1.30078 6.16406C1.84115 5.6237 2.63867 5.35352 3.69336 5.35352H6.52539V7.27734H3.81055C3.35482 7.27734 3.00651 7.39779 2.76562 7.63867C2.53125 7.87305 2.41406 8.22786 2.41406 8.70312V17.9707C2.41406 18.446 2.53125 18.8008 2.76562 19.0352C3.00651 19.276 3.35482 19.3965 3.81055 19.3965H14.8164C15.2656 19.3965 15.6107 19.276 15.8516 19.0352C16.099 18.8008 16.2227 18.446 16.2227 17.9707V8.70312C16.2227 8.22786 16.099 7.87305 15.8516 7.63867C15.6107 7.39779 15.2656 7.27734 14.8164 7.27734H12.1113V5.35352H14.9434C15.998 5.35352 16.7956 5.6237 17.3359 6.16406C17.8763 6.69792 18.1465 7.48568 18.1465 8.52734V18.1367C18.1465 19.1784 17.8763 19.9661 17.3359 20.5C16.7956 21.0404 15.998 21.3105 14.9434 21.3105H3.69336ZM9.31836 14.9824C9.20117 14.9824 9.08724 14.9629 8.97656 14.9238C8.86589 14.8783 8.7487 14.7969 8.625 14.6797L5.34375 11.5156C5.18099 11.3464 5.09961 11.1543 5.09961 10.9395C5.09961 10.7116 5.17448 10.526 5.32422 10.3828C5.48047 10.2396 5.67253 10.168 5.90039 10.168C6.14779 10.168 6.34961 10.2559 6.50586 10.4316L7.87305 11.8867L8.50781 12.5996L8.41016 11.1445V1.02734C8.41016 0.786458 8.49805 0.578125 8.67383 0.402344C8.85612 0.226562 9.07096 0.138672 9.31836 0.138672C9.56576 0.138672 9.77734 0.226562 9.95312 0.402344C10.1354 0.578125 10.2266 0.786458 10.2266 1.02734V11.1445L10.1289 12.5996L10.7539 11.8867L12.1211 10.4316C12.2839 10.2559 12.4857 10.168 12.7266 10.168C12.9479 10.168 13.1367 10.2396 13.293 10.3828C13.4557 10.526 13.5371 10.7116 13.5371 10.9395C13.5371 11.1543 13.4525 11.3464 13.2832 11.5156L10.002 14.6797C9.88477 14.7969 9.77083 14.8783 9.66016 14.9238C9.54948 14.9629 9.43555 14.9824 9.31836 14.9824Z" fill="white"/>
</svg>
